<svg width="282" height="141" viewBox="0 0 282 141" fill="none" xmlns="http://www.w3.org/2000/svg"
  class="antialiased" data-sentry-element="svg" data-sentry-component="WishlyLogo"
  data-sentry-source-file="wishly-logo.tsx">
  <path
    d="M131.956 8.52329C123.185 9.82188 117.722 18.1337 113.283 25.0325C104.217 39.1228 92.9714 66.6639 85.0565 85.4957C80.7299 95.7729 78.38 103.684 75.3693 105.307C71.7968 107.243 63.4294 105.62 60.5715 102.378C56.7344 98.0287 58.7363 80.7337 59.9132 72.7104C59.9991 72.1248 59.0916 71.8441 58.8425 72.381C54.4812 81.7781 42.9168 105.528 36.3961 107.897C31.492 109.673 22.1759 105.158 21.2371 100.258C20.5981 96.9464 22.2136 90.2013 23.0452 86.7881C26.0877 74.3996 36.0825 48.6868 41.1196 31.655C42.3104 27.6098 43.8109 19.8476 42.7431 19.3646C41.725 18.8967 35.7967 23.9419 32.9686 26.6419C20.1555 38.9058 13.3044 50.3623 15.6086 61.4225C15.9599 63.1074 15.1263 64.796 13.2448 64.7903C6.72117 64.7602 -0.415734 58.1546 0.0189113 52.0905C1.0311 37.9172 17.3194 18.9458 37.3587 10.3176C46.1984 7.1252 54.03 9.41573 55.2327 20.3174C56.6061 32.7305 50.7414 51.483 44.1899 72.1525C42.5665 77.2713 38.6626 88.0843 39.8018 88.5145C45.5916 90.7262 68.9427 29.5231 70.5544 25.2891C70.9348 24.3023 71.7815 23.5505 72.7832 23.2344C78.1419 21.5589 82.5677 21.6646 85.6519 24.2683C86.4384 24.9201 86.7188 26.0336 86.287 26.9683C78.6792 43.14 73.3656 66.2872 72.5187 82.8091C72.4902 83.365 73.2359 83.52 73.4444 83.0039C76.4444 75.579 80.715 65.3506 85.5407 54.6697C91.9334 40.519 99.0862 25.8023 105.628 15.6798C109.869 9.10877 117.105 -0.185926 125.917 0.693224C130.228 1.11586 132.651 3.90072 133.062 7.12331C133.149 7.81136 132.623 8.41872 131.956 8.52329Z"
    fill="#FBD0FF" data-sentry-element="path" data-sentry-source-file="wishly-logo.tsx"></path>
  <path
    d="M158.224 54.1716C157.015 59.1055 154.346 63.5734 152.071 63.6224C150.17 63.6564 146.673 60.2263 146.844 58.7527C147.088 56.6637 151.953 51.413 149.787 49.8491C148.241 48.7264 139.641 54.9056 140.987 61.0187C142.523 67.979 149.906 69.6639 151.678 78.926C155.238 97.5495 125.609 104.73 117.887 88.9186C117.72 88.5772 117.246 88.5 117.003 88.7917C115.388 90.7277 110.455 96.3522 107.376 96.7219C103.208 97.2238 97.9192 92.1541 98.4332 85.9353C99.3817 74.4269 105.485 60.0324 112.157 45.2963C112.737 44.0209 113.777 43.185 115.567 43.3435C118.699 43.6246 121.493 44.6114 123.934 46.4887C125.118 47.4026 125.536 49.0474 124.855 50.3943C123.405 53.2814 109.1 82.1389 112.665 83.4919C118.954 85.9085 119.267 72.859 123.555 81.0297C126.566 86.7535 139.914 87.9551 137.918 79.2637C135.762 69.799 123.799 65.6856 128.551 53.8886C132.016 45.3001 141.217 39.2945 149.473 39.8171C155.665 40.2077 160.451 45.051 158.224 54.1716Z"
    fill="#FBD0FF" data-sentry-element="path" data-sentry-source-file="wishly-logo.tsx"></path>
  <path
    d="M279.962 72.2016C279.716 72.0619 278.489 72.7676 278.374 73.1336C276.138 79.8651 269.138 84.1613 262.899 87.0481C262.506 87.2298 262.091 86.8563 262.226 86.4453C266.788 72.4885 272.371 59.0609 278.029 45.5095C278.426 44.5473 278.519 43.3907 277.813 42.602C275.675 40.2322 272.728 39.1549 269.558 39.0851C267.445 39.0323 265.853 39.3624 264.706 42.119C262.75 46.8253 248.817 82.7006 242.497 80.4392C239.25 79.2788 245.806 57.1584 253.957 45.7737C254.447 45.0963 254.235 44.0322 253.641 43.4341C251.889 41.6624 247.886 39.2172 245.351 38.7587C242.594 38.2587 241.086 41.2115 240.554 42.0831C235.202 50.9042 230.382 62.6269 228.436 72.5232C228.42 72.606 228.387 72.6785 228.333 72.7432C226.242 75.2414 219.142 83.5367 217.667 82.7674C207.847 77.6402 238.983 19.084 246.522 8.28556C248.992 4.75135 237.907 -3.23854 234.324 1.42152C218.966 21.3676 210.024 49.639 204.556 73.691C204.538 73.7726 204.5 73.8472 204.444 73.9099C200.366 78.5194 195.028 83.7752 193.613 82.9844C190.659 81.334 200.672 58.3965 201.837 54.5339C205.658 41.8926 196.875 39.3266 192.586 41.1737C188.792 42.8107 184.181 47.2225 178.847 54.1369C178.497 54.5898 177.767 54.2055 177.958 53.6663C182.989 39.485 189.582 24.879 197.185 10.1872C197.886 8.83243 197.785 7.17775 196.788 6.02339C193.634 2.36931 189.84 -0.0582421 186.17 1.74981C181.562 4.01393 156.05 69.4393 154.834 91.2956C154.626 94.9108 166.374 98.9771 166.837 95.337C168.834 80.043 175.862 65.2863 187.714 55.2207C188.01 54.9716 188.556 55.1999 188.377 55.6263C183.602 66.7582 178.61 78.6071 178.7 86.6334C178.763 92.922 183.57 96.488 187.829 96.488C192.11 96.488 197.356 89.4284 202.316 82.1275C202.608 81.6976 203.305 81.944 203.28 82.4631C202.945 89.2967 204.606 95.0751 210.27 96.1068C215.905 97.1311 221.789 90.96 226.53 82.3453C226.785 81.8815 227.558 82.0807 227.598 82.6084C228.586 95.5829 240.707 93.1224 248.004 85.0783C248.415 84.6254 249.694 85.2681 249.495 85.846C248.659 88.266 247.809 90.6089 246.948 92.8689C246.894 93.0089 246.8 93.1109 246.658 93.159C244.048 94.0431 217.245 103.276 208.373 112.512C201.125 120.059 201.823 130.646 207.073 135.753C214.398 142.874 223.958 141.51 230.768 138.857C242.728 134.197 251.571 118.98 258.583 97.5691C258.63 97.4246 258.743 97.3072 258.885 97.2538C270.312 92.9614 278.038 89.227 280.956 82.8391C283.104 78.0769 281.516 73.0581 279.962 72.2016ZM218.965 129.859C214.995 130.308 213.469 127.252 213.977 124.357C215.366 116.411 227.848 109.67 242.604 103.18C242.607 103.179 242.609 103.179 242.612 103.178C242.631 103.176 242.651 103.192 242.643 103.21C237.162 115.29 229.012 128.725 218.965 129.859Z"
    fill="#FBD0FF" data-sentry-element="path" data-sentry-source-file="wishly-logo.tsx"></path>
  <path
    d="M128.184 24.7023C128.134 25.1988 128.859 25.687 129.335 25.537C131.528 24.8461 133.442 26.6157 133.133 29.323C132.508 34.7757 126.469 39.7436 122.585 38.7096C119.52 37.8926 117.335 33.1286 118.788 27.5136C119.955 22.9967 121.985 19.7778 124.81 19.942C128.089 20.1358 128.373 22.8625 128.184 24.7023Z"
    fill="#FBD0FF" data-sentry-element="path" data-sentry-source-file="wishly-logo.tsx"></path>
</svg>